<svg width="15" height="12" viewBox="0 0 15 12" fill="none" xmlns="http://www.w3.org/2000/svg">
<path fill-rule="evenodd" clip-rule="evenodd" d="M9.03104 7.4375C9.41942 7.43723 9.80045 7.54341 10.1327 7.74449C10.4651 7.94561 10.7359 8.23397 10.9158 8.57825C11.0958 8.92252 11.1779 9.30953 11.1532 9.6972C11.1286 10.0849 10.9982 10.4584 10.7762 10.7771C10.5541 11.0959 10.249 11.3476 9.89387 11.5051C9.53876 11.6626 9.14728 11.7197 8.76199 11.6702C8.3767 11.6208 8.01233 11.4666 7.70849 11.2246C7.40466 10.9826 7.17298 10.6619 7.03864 10.2974C6.93717 10.0221 7.07809 9.71667 7.35338 9.6152C7.62868 9.51374 7.93411 9.65465 8.03558 9.92995C8.10275 10.1122 8.21859 10.2725 8.37051 10.3936C8.52242 10.5146 8.70461 10.5916 8.89725 10.6164C9.0899 10.6411 9.28564 10.6125 9.46319 10.5338C9.64075 10.4551 9.79333 10.3292 9.90435 10.1698C10.0154 10.0104 10.0806 9.82369 10.0929 9.62985C10.1052 9.43602 10.0641 9.24251 9.97417 9.07037C9.88421 8.89824 9.74879 8.75405 9.58262 8.65349C9.41645 8.55293 9.2259 8.49985 9.03167 8.5H1.59375C1.30035 8.5 1.0625 8.26215 1.0625 7.96875C1.0625 7.67535 1.30035 7.4375 1.59375 7.4375H9.03104Z" fill="#A3A3A3"/>
<path fill-rule="evenodd" clip-rule="evenodd" d="M7.33819 1.1537C7.16064 1.07497 6.9649 1.04642 6.77225 1.07115C6.57961 1.09587 6.39742 1.17293 6.24551 1.29395C6.09359 1.41497 5.97775 1.57531 5.91058 1.75755C5.80911 2.03285 5.50368 2.17377 5.22838 2.0723C4.95309 1.97083 4.81217 1.6654 4.91364 1.3901C5.04798 1.02562 5.27966 0.704933 5.58349 0.462899C5.88733 0.220865 6.2517 0.0667451 6.63699 0.0172917C7.02228 -0.0321617 7.41376 0.0249434 7.76887 0.1824C8.12398 0.339856 8.42914 0.591639 8.65117 0.910382C8.87321 1.22913 9.00362 1.60263 9.02824 1.9903C9.05287 2.37798 8.97075 2.76498 8.79083 3.10925C8.61091 3.45353 8.34006 3.7419 8.00772 3.94302C7.67551 4.14406 7.29456 4.25023 6.90625 4.25H0.53125C0.237849 4.25 0 4.01215 0 3.71875C0 3.42535 0.237849 3.1875 0.53125 3.1875H6.90625C7.10048 3.18766 7.29145 3.13457 7.45762 3.03401C7.62379 2.93345 7.75921 2.78926 7.84917 2.61713C7.93914 2.44499 7.98019 2.25149 7.96788 2.05765C7.95557 1.86382 7.89036 1.67706 7.77935 1.51769C7.66833 1.35832 7.51575 1.23243 7.33819 1.1537Z" fill="#A3A3A3"/>
<path fill-rule="evenodd" clip-rule="evenodd" d="M13.1819 3.2787C13.0044 3.19997 12.8087 3.17142 12.616 3.19615C12.4234 3.22087 12.2412 3.29793 12.0893 3.41895C11.9373 3.53997 11.8215 3.70031 11.7543 3.88255C11.6529 4.15785 11.3474 4.29877 11.0721 4.1973C10.7968 4.09583 10.6559 3.7904 10.7574 3.5151C10.8917 3.15062 11.1234 2.82993 11.4272 2.5879C11.7311 2.34587 12.0954 2.19175 12.4807 2.14229C12.866 2.09284 13.2575 2.14994 13.6126 2.3074C13.9677 2.46486 14.2729 2.71664 14.4949 3.03538C14.717 3.35413 14.8474 3.72763 14.872 4.1153C14.8966 4.50298 14.8145 4.88998 14.6346 5.23425C14.4547 5.57853 14.1838 5.8669 13.8515 6.06802C13.5192 6.26907 13.1383 6.37525 12.7499 6.375H1.0625C0.769099 6.375 0.53125 6.13715 0.53125 5.84375C0.53125 5.55035 0.769099 5.3125 1.0625 5.3125H12.75C12.9442 5.31266 13.1352 5.25957 13.3014 5.15901C13.4675 5.05845 13.603 4.91426 13.6929 4.74213C13.7829 4.56999 13.8239 4.37649 13.8116 4.18265C13.7993 3.98882 13.7341 3.80206 13.6231 3.64269C13.5121 3.48332 13.3595 3.35743 13.1819 3.2787Z" fill="#A3A3A3"/>
</svg>
