<svg width="15" height="14" viewBox="0 0 15 14" fill="none" xmlns="http://www.w3.org/2000/svg">
<path fill-rule="evenodd" clip-rule="evenodd" d="M4.25 0C4.5434 0 4.78125 0.237849 4.78125 0.53125V2.65625C4.78125 2.94965 4.5434 3.1875 4.25 3.1875C3.9566 3.1875 3.71875 2.94965 3.71875 2.65625V0.53125C3.71875 0.237849 3.9566 0 4.25 0Z" fill="#A3A3A3"/>
<path fill-rule="evenodd" clip-rule="evenodd" d="M6.375 0C6.6684 0 6.90625 0.237849 6.90625 0.53125V2.65625C6.90625 2.94965 6.6684 3.1875 6.375 3.1875C6.0816 3.1875 5.84375 2.94965 5.84375 2.65625V0.53125C5.84375 0.237849 6.0816 0 6.375 0Z" fill="#A3A3A3"/>
<path fill-rule="evenodd" clip-rule="evenodd" d="M8.5 0C8.7934 0 9.03125 0.237849 9.03125 0.53125V2.65625C9.03125 2.94965 8.7934 3.1875 8.5 3.1875C8.2066 3.1875 7.96875 2.94965 7.96875 2.65625V0.53125C7.96875 0.237849 8.2066 0 8.5 0Z" fill="#A3A3A3"/>
<path fill-rule="evenodd" clip-rule="evenodd" d="M1.2666e-07 13.2812C1.2666e-07 12.9878 0.237849 12.75 0.53125 12.75H12.2188C12.5122 12.75 12.75 12.9878 12.75 13.2812C12.75 13.5747 12.5122 13.8125 12.2188 13.8125H0.53125C0.237849 13.8125 1.2666e-07 13.5747 1.2666e-07 13.2812Z" fill="#A3A3A3"/>
<path fill-rule="evenodd" clip-rule="evenodd" d="M1.12909e-07 4.78125C1.12909e-07 4.48785 0.237849 4.25 0.53125 4.25H12.2188C12.5122 4.25 12.75 4.48785 12.75 4.78125V7.96864C12.75 7.96861 12.75 7.96868 12.75 7.96864C12.7502 9.189 12.4002 10.3839 11.7414 11.4112C11.0827 12.4385 10.1429 13.2551 9.03366 13.7641C8.767 13.8865 8.45163 13.7695 8.32926 13.5028C8.2069 13.2361 8.32389 12.9208 8.59055 12.7984C9.51489 12.3743 10.2981 11.6937 10.847 10.8376C11.396 9.98154 11.6877 8.98585 11.6875 7.96886V5.3125H1.0625V7.96875C1.06229 8.98574 1.354 9.98154 1.90297 10.8376C2.45195 11.6937 3.23511 12.3743 4.15945 12.7984C4.42611 12.9208 4.5431 13.2361 4.42074 13.5028C4.29837 13.7695 3.983 13.8865 3.71634 13.7641C2.60714 13.2551 1.66734 12.4385 1.00857 11.4112C0.349819 10.3839 -0.000229521 9.18911 1.12909e-07 7.96875C1.12909e-07 7.96871 1.12909e-07 7.96879 1.12909e-07 7.96875V4.78125Z" fill="#A3A3A3"/>
<path fill-rule="evenodd" clip-rule="evenodd" d="M11.6875 4.78125C11.6875 4.48785 11.9253 4.25 12.2188 4.25C12.9232 4.25 13.5989 4.52985 14.097 5.028C14.5951 5.52614 14.875 6.20177 14.875 6.90625V7.4375C14.875 8.14198 14.5951 8.81761 14.097 9.31575C13.5989 9.8139 12.9232 10.0938 12.2188 10.0938H11.993C11.6996 10.0938 11.4617 9.8559 11.4617 9.5625C11.4617 9.2691 11.6996 9.03125 11.993 9.03125H12.2188C12.6414 9.03125 13.0468 8.86334 13.3457 8.56445C13.6446 8.26556 13.8125 7.86019 13.8125 7.4375V6.90625C13.8125 6.48356 13.6446 6.07818 13.3457 5.7793C13.0468 5.48041 12.6414 5.3125 12.2188 5.3125C11.9253 5.3125 11.6875 5.07465 11.6875 4.78125Z" fill="#A3A3A3"/>
</svg>
