<svg width="22" height="22" viewBox="0 0 22 22" fill="none" xmlns="http://www.w3.org/2000/svg">
<path fill-rule="evenodd" clip-rule="evenodd" d="M3.87816 1.50298C4.15612 1.47505 4.436 1.53246 4.68053 1.66754L4.68404 1.66949L19.1958 9.79745L19.1976 9.79846C19.4117 9.91735 19.5902 10.0913 19.7146 10.3022C19.8393 10.5138 19.9051 10.755 19.9051 11.0006C19.9051 11.2462 19.8393 11.4873 19.7146 11.6989C19.5902 11.9099 19.4117 12.0838 19.1976 12.2027L19.1958 12.2037L4.68053 20.3336C4.436 20.4687 4.15612 20.5261 3.87816 20.4982C3.6002 20.4702 3.33734 20.3583 3.12458 20.1773C2.91181 19.9962 2.75924 19.7547 2.68717 19.4848C2.61519 19.2152 2.62692 18.9301 2.72081 18.6674L5.45404 11.0006L2.72115 3.33473C2.62713 3.07188 2.61515 2.78609 2.68717 2.51637C2.75924 2.24647 2.91181 2.00492 3.12458 1.82388C3.33734 1.64285 3.6002 1.53091 3.87816 1.50298ZM18.527 10.9988L4.01562 2.87109L4.01597 2.87205L6.74483 10.5266C6.86353 10.8314 6.86353 11.1697 6.74483 11.4745L4.01562 19.13L18.527 11.0023L18.5301 11.0006L18.527 10.9988Z" fill="#6E6E6E"/>
<path fill-rule="evenodd" clip-rule="evenodd" d="M5.49964 11.0006C5.49964 10.6209 5.80744 10.3131 6.18714 10.3131H11.6871C12.0668 10.3131 12.3746 10.6209 12.3746 11.0006C12.3746 11.3803 12.0668 11.6881 11.6871 11.6881H6.18714C5.80744 11.6881 5.49964 11.3803 5.49964 11.0006Z" fill="#6E6E6E"/>
</svg>
